<svg width="340" height="103" viewBox="0 0 340 103" fill="none" xmlns="http://www.w3.org/2000/svg">
<path d="M102.7 34.1161C102.092 34.6281 101.676 35.2041 101.452 35.8441C101.26 36.4841 101.164 37.1721 101.164 37.9081C101.164 38.6121 101.468 39.2681 102.076 39.8761C102.716 40.4841 103.548 40.9961 104.572 41.4121C105.596 41.8281 106.764 42.1961 108.076 42.5161C109.388 42.8361 110.716 43.1721 112.06 43.5241C113.436 43.8441 114.78 44.2281 116.092 44.6761C117.404 45.0921 118.572 45.6361 119.596 46.3081C121.868 47.7481 123.004 49.7161 123.004 52.2121C123.004 55.1881 121.884 57.4601 119.644 59.0281C117.436 60.5961 114.364 61.3801 110.428 61.3801C105.98 61.3801 102.588 60.4521 100.252 58.5961C98.1721 56.9321 96.9881 54.5641 96.7001 51.4921H100.444C100.572 53.6681 101.628 55.3321 103.612 56.4841C105.34 57.4761 107.628 57.9721 110.476 57.9721C116.428 57.9721 119.404 56.1001 119.404 52.3561C119.404 51.0761 118.86 50.0681 117.772 49.3321C116.716 48.5961 115.372 47.9881 113.74 47.5081C112.14 47.0281 110.396 46.5801 108.508 46.1641C106.652 45.7481 104.908 45.2201 103.276 44.5801C101.676 43.9081 100.332 43.0441 99.2441 41.9881C98.1881 40.9001 97.6601 39.4441 97.6601 37.6201C97.6601 35.0281 98.6521 32.9161 100.636 31.2841C102.62 29.6521 105.612 28.8361 109.612 28.8361C113.644 28.8361 116.764 29.7641 118.972 31.6201C120.988 33.2521 122.06 35.3481 122.188 37.9081H118.492C118.172 35.2841 116.476 33.5401 113.404 32.6761C112.316 32.3561 110.956 32.1961 109.324 32.1961C107.724 32.1961 106.364 32.3881 105.244 32.7721C104.156 33.1241 103.308 33.5721 102.7 34.1161ZM131.415 36.9961V40.7401C132.279 39.5881 133.335 38.6121 134.583 37.8121C135.831 37.0121 137.255 36.6121 138.855 36.6121C140.455 36.6121 141.831 36.8361 142.983 37.2841C144.135 37.7321 145.143 38.4041 146.007 39.3001C147.991 41.2521 148.983 43.8281 148.983 47.0281V60.9961H145.383V47.1241C145.383 44.9161 144.759 43.1561 143.511 41.8441C142.263 40.5321 140.647 39.8761 138.663 39.8761C136.647 39.8761 134.935 40.5481 133.527 41.8921C132.119 43.2681 131.415 45.0281 131.415 47.1721V60.9961H127.815V36.9961H131.415ZM173.723 57.1561C171.803 59.9721 168.939 61.3801 165.131 61.3801C161.675 61.3801 158.859 60.1801 156.683 57.7801C154.571 55.4121 153.515 52.4841 153.515 48.9961C153.515 45.5081 154.571 42.5801 156.683 40.2121C158.859 37.8121 161.755 36.6121 165.371 36.6121C168.987 36.6121 171.771 38.0361 173.723 40.8841V36.9961H177.323V60.9961H173.723V57.1561ZM165.611 58.1161C168.203 58.1161 170.251 57.2201 171.755 55.4281C173.195 53.7321 173.915 51.5881 173.915 48.9961C173.915 46.4041 173.195 44.2601 171.755 42.5641C170.251 40.7721 168.203 39.8761 165.611 39.8761C163.051 39.8761 160.971 40.7721 159.371 42.5641C157.867 44.2601 157.115 46.4041 157.115 48.9961C157.115 51.5881 157.867 53.7321 159.371 55.4281C160.971 57.2201 163.051 58.1161 165.611 58.1161ZM187.15 40.8361C189.07 38.0201 191.934 36.6121 195.742 36.6121C199.198 36.6121 201.998 37.8121 204.142 40.2121C206.286 42.5801 207.358 45.5081 207.358 48.9961C207.358 52.4841 206.286 55.4121 204.142 57.7801C201.998 60.1801 199.118 61.3801 195.502 61.3801C191.886 61.3801 189.102 59.9561 187.15 57.1081V70.5001H183.55V36.9961H187.15V40.8361ZM195.262 39.8761C192.67 39.8761 190.622 40.7721 189.118 42.5641C187.678 44.2601 186.958 46.4041 186.958 48.9961C186.958 51.5881 187.678 53.7321 189.118 55.4281C190.622 57.2201 192.67 58.1161 195.262 58.1161C197.822 58.1161 199.902 57.2201 201.502 55.4281C203.006 53.7321 203.758 51.5881 203.758 48.9961C203.758 46.4041 203.006 44.2601 201.502 42.5641C199.902 40.7721 197.822 39.8761 195.262 39.8761ZM215.65 40.8841C217.602 38.0361 220.466 36.6121 224.242 36.6121C227.698 36.6121 230.498 37.8121 232.642 40.2121C234.786 42.5801 235.858 45.5081 235.858 48.9961C235.858 52.4841 234.786 55.4121 232.642 57.7801C230.498 60.1801 227.602 61.3801 223.954 61.3801C220.338 61.3801 217.57 59.9721 215.65 57.1561V60.9961H212.05V27.3961H215.65V40.8841ZM223.762 58.1161C226.322 58.1161 228.402 57.2201 230.002 55.4281C231.506 53.7321 232.258 51.5881 232.258 48.9961C232.258 46.4041 231.506 44.2601 230.002 42.5641C228.402 40.7721 226.322 39.8761 223.762 39.8761C221.17 39.8761 219.122 40.7721 217.618 42.5641C216.178 44.2601 215.458 46.4041 215.458 48.9961C215.458 51.5881 216.178 53.7321 217.618 55.4281C219.122 57.2201 221.17 58.1161 223.762 58.1161ZM253.222 36.6121V40.2121H252.79C250.198 40.2121 248.086 41.2521 246.454 43.3321C244.918 45.3161 244.15 47.6841 244.15 50.4361V60.9961H240.55V36.9961H244.15V42.9001C244.918 40.4041 246.582 38.5641 249.142 37.3801C250.198 36.8681 251.478 36.6121 252.982 36.6121H253.222ZM257.097 36.9961H260.697V60.9961H257.097V36.9961ZM260.841 28.2601V32.9641H256.953V28.2601H260.841ZM270.54 60.9961H266.94V27.3961H270.54V60.9961ZM280.384 60.9961H276.784V27.3961H280.384V60.9961ZM286.628 36.9961H290.228V60.9961H286.628V36.9961ZM290.372 28.2601V32.9641H286.484V28.2601H290.372ZM315.192 57.1561C313.272 59.9721 310.408 61.3801 306.6 61.3801C303.144 61.3801 300.328 60.1801 298.152 57.7801C296.04 55.4121 294.984 52.4841 294.984 48.9961C294.984 45.5081 296.04 42.5801 298.152 40.2121C300.328 37.8121 303.224 36.6121 306.84 36.6121C310.456 36.6121 313.24 38.0361 315.192 40.8841V36.9961H318.792V60.9961H315.192V57.1561ZM307.08 58.1161C309.672 58.1161 311.72 57.2201 313.224 55.4281C314.664 53.7321 315.384 51.5881 315.384 48.9961C315.384 46.4041 314.664 44.2601 313.224 42.5641C311.72 40.7721 309.672 39.8761 307.08 39.8761C304.52 39.8761 302.44 40.7721 300.84 42.5641C299.336 44.2601 298.584 46.4041 298.584 48.9961C298.584 51.5881 299.336 53.7321 300.84 55.4281C302.44 57.2201 304.52 58.1161 307.08 58.1161Z" fill="url(#paint0_linear_1086_56084)"/>
<path d="M32.3955 65.0813C31.4631 63.8316 27.8885 64.2252 26.4111 64.4132C21.6649 65.0135 13.5292 67.4117 8.63106 68.6793L2.11108 70.2676C1.50022 70.3447 0.340409 70.4205 0.260372 69.6135C0.148239 68.5155 3.72643 66.8337 4.65706 66.3322C8.47412 64.2773 16.7633 61.312 19.2368 58.283C15.7442 56.6838 15.6052 57.0327 11.9216 56.5214C11.2293 56.4247 9.94955 56.287 9.97789 55.3787C10.0083 54.405 11.8224 53.7414 12.6032 53.396L20.6779 49.7315L41.227 39.9998C45.8162 38.0745 51.5281 36.4838 56.2606 38.1767C58.6465 39.0285 60.3099 41.1886 61.351 43.3026C61.965 44.5426 62.2992 45.4625 62.5431 46.8347C64.182 56.0848 52.8761 62.3346 45.6715 66.3615L40.8695 68.9483L33.3782 72.8804C31.5321 73.8352 30.758 74.6481 28.981 73.4419C30.214 71.7525 33.7977 66.963 32.3955 65.0813ZM6.1318 67.746L5.99279 67.3137L5.83111 67.608L6.1318 67.746ZM11.8273 66.2879C16.1191 65.0958 25.0823 62.7199 29.2613 62.6515C34.519 62.566 35.447 65.6673 33.2103 69.8553L32.4019 71.3268C34.6963 70.7621 39.1857 68.2234 41.4307 66.9948C47.0207 63.9331 55.7119 59.3245 59.3814 54.2279C62.6954 49.6279 60.721 41.5984 55.491 39.5776C51.8655 38.1791 47.1987 39.4644 43.5747 40.7088C38.3074 42.5182 29.9848 46.7985 24.739 49.3843L13.5464 54.9344L17.8693 55.9749C21.1022 56.9022 21.4103 58.9046 18.6019 60.9397C15.2364 63.3787 8.82189 65.3987 6.29348 67.4517C8.14032 67.4481 10.0291 66.7856 11.8273 66.2879ZM44.7862 57.0077C37.3079 53.2881 40.8912 42.2079 49.2651 42.0011C50.7866 41.966 52.2636 42.4302 53.5589 43.0946C58.8284 45.8042 58.6361 52.9462 53.7585 56.438C51.6652 57.939 49.3695 58.2525 46.891 57.9737C46.0317 57.653 45.5775 57.4998 44.7862 57.0077ZM52.3128 30.3471C55.31 24.0207 62.1115 27.485 65.7571 30.4848C71.2806 35.0281 76.0625 43.3954 76.8142 50.4363C77.2605 54.6063 76.4722 61.7364 70.2479 61.3746C66.7622 61.1678 64.2342 59.0052 61.6671 57.1195C63.3033 54.6276 64.1092 53.8255 64.5963 50.7251C65.3944 45.6743 62.5337 39.0252 57.8692 36.6192C56.0682 35.6894 53.4266 35.5568 51.3639 35.4393C51.3416 33.6639 51.5193 32.0245 52.3128 30.3471Z" fill="url(#paint1_linear_1086_56084)"/>
<defs>
<linearGradient id="paint0_linear_1086_56084" x1="217.582" y1="21.9961" x2="217.582" y2="84.0316" gradientUnits="userSpaceOnUse">
<stop offset="0.145833" stop-color="#FC65F9"/>
<stop offset="0.927083" stop-color="#405DE6"/>
</linearGradient>
<linearGradient id="paint1_linear_1086_56084" x1="75.6516" y1="104.586" x2="158.163" y2="-75.1975" gradientUnits="userSpaceOnUse">
<stop stop-color="#FC65F9"/>
<stop offset="0.416667" stop-color="#405DE6"/>
</linearGradient>
</defs>
</svg>
