<svg width="316" height="103" viewBox="0 0 316 103" fill="none" xmlns="http://www.w3.org/2000/svg">
<path d="M103.494 61.3684C100.358 61.3684 97.8145 60.9524 95.8625 60.1204C93.9105 59.2564 92.4385 58.0724 91.4465 56.5684C90.4865 55.0644 89.9265 53.3684 89.7665 51.4804H93.5105C93.6065 53.0164 94.1185 54.2644 95.0465 55.2244C95.9745 56.1524 97.1905 56.8404 98.6945 57.2884C100.23 57.7364 101.91 57.9604 103.734 57.9604C106.422 57.9604 108.55 57.4964 110.118 56.5684C111.686 55.6084 112.47 54.2004 112.47 52.3444C112.47 51.2244 112.07 50.3284 111.27 49.6564C110.502 48.9524 109.462 48.3764 108.15 47.9284C106.87 47.4804 105.462 47.0804 103.926 46.7284C102.39 46.3444 100.838 45.9444 99.2705 45.5284C97.7345 45.1124 96.3105 44.5844 94.9985 43.9444C93.7185 43.3044 92.6785 42.4884 91.8785 41.4964C91.1105 40.4724 90.7265 39.1764 90.7265 37.6084C90.7265 35.0164 91.7185 32.9044 93.7025 31.2724C95.7185 29.6404 98.7105 28.8244 102.678 28.8244C105.494 28.8244 107.814 29.2564 109.638 30.1204C111.462 30.9524 112.822 32.0564 113.718 33.4324C114.646 34.8084 115.158 36.2964 115.254 37.8964H111.558C111.366 36.2964 110.566 34.9524 109.158 33.8644C107.75 32.7444 105.59 32.1844 102.678 32.1844C100.886 32.1844 99.4305 32.3604 98.3105 32.7124C97.1905 33.0644 96.3265 33.5284 95.7185 34.1044C95.1425 34.6484 94.7425 35.2244 94.5185 35.8324C94.3265 36.4404 94.2305 37.0164 94.2305 37.5604C94.2305 38.6164 94.6145 39.4804 95.3825 40.1524C96.1825 40.7924 97.2225 41.3364 98.5025 41.7844C99.8145 42.2004 101.254 42.5844 102.822 42.9364C104.39 43.2884 105.942 43.6884 107.478 44.1364C109.046 44.5524 110.47 45.0964 111.75 45.7684C113.062 46.4084 114.102 47.2404 114.87 48.2644C115.67 49.2884 116.07 50.6004 116.07 52.2004C116.07 55.1444 114.95 57.4164 112.71 59.0164C110.47 60.5844 107.398 61.3684 103.494 61.3684ZM120.882 60.9844V36.9844H124.482V40.7284C125.346 39.5764 126.402 38.6004 127.65 37.8004C128.898 37.0004 130.498 36.6004 132.45 36.6004C134.114 36.6004 135.666 37.0004 137.106 37.8004C138.578 38.5684 139.762 39.7364 140.658 41.3044C141.586 42.8404 142.05 44.7444 142.05 47.0164V60.9844H138.45V47.1124C138.45 44.9364 137.826 43.1924 136.578 41.8804C135.33 40.5364 133.714 39.8644 131.73 39.8644C130.386 39.8644 129.17 40.1684 128.082 40.7764C126.994 41.3844 126.114 42.2484 125.442 43.3684C124.802 44.4564 124.482 45.7204 124.482 47.1604V60.9844H120.882ZM158.197 61.3684C155.861 61.3684 153.813 60.8244 152.053 59.7364C150.325 58.6164 148.981 57.1124 148.021 55.2244C147.061 53.3364 146.581 51.2564 146.581 48.9844C146.581 46.6804 147.061 44.6004 148.021 42.7444C148.981 40.8564 150.325 39.3684 152.053 38.2804C153.813 37.1604 155.861 36.6004 158.197 36.6004C160.181 36.6004 161.877 36.9844 163.285 37.7524C164.725 38.5204 165.893 39.5604 166.789 40.8724V36.9844H170.389V60.9844H166.789V57.1444C165.893 58.4244 164.725 59.4484 163.285 60.2164C161.877 60.9844 160.181 61.3684 158.197 61.3684ZM158.677 58.1044C160.469 58.1044 161.973 57.6884 163.189 56.8564C164.437 56.0244 165.381 54.9204 166.021 53.5444C166.661 52.1364 166.981 50.6164 166.981 48.9844C166.981 47.3204 166.661 45.8004 166.021 44.4244C165.381 43.0484 164.437 41.9444 163.189 41.1124C161.973 40.2804 160.469 39.8644 158.677 39.8644C156.917 39.8644 155.397 40.2804 154.117 41.1124C152.837 41.9444 151.861 43.0484 151.189 44.4244C150.517 45.8004 150.181 47.3204 150.181 48.9844C150.181 50.6164 150.517 52.1364 151.189 53.5444C151.861 54.9204 152.837 56.0244 154.117 56.8564C155.397 57.6884 156.917 58.1044 158.677 58.1044ZM176.616 70.4884V36.9844H180.216V40.8244C181.112 39.5124 182.264 38.4884 183.672 37.7524C185.112 36.9844 186.824 36.6004 188.808 36.6004C191.144 36.6004 193.176 37.1604 194.904 38.2804C196.664 39.3684 198.024 40.8564 198.984 42.7444C199.944 44.6004 200.424 46.6804 200.424 48.9844C200.424 51.2564 199.944 53.3364 198.984 55.2244C198.024 57.1124 196.664 58.6164 194.904 59.7364C193.176 60.8244 191.144 61.3684 188.808 61.3684C186.824 61.3684 185.112 60.9844 183.672 60.2164C182.264 59.4164 181.112 58.3764 180.216 57.0964V70.4884H176.616ZM188.328 58.1044C190.12 58.1044 191.64 57.6884 192.888 56.8564C194.168 56.0244 195.144 54.9204 195.816 53.5444C196.488 52.1364 196.824 50.6164 196.824 48.9844C196.824 47.3204 196.488 45.8004 195.816 44.4244C195.144 43.0484 194.168 41.9444 192.888 41.1124C191.64 40.2804 190.12 39.8644 188.328 39.8644C186.568 39.8644 185.064 40.2804 183.816 41.1124C182.568 41.9444 181.624 43.0484 180.984 44.4244C180.344 45.8004 180.024 47.3204 180.024 48.9844C180.024 50.6164 180.344 52.1364 180.984 53.5444C181.624 54.9204 182.568 56.0244 183.816 56.8564C185.064 57.6884 186.568 58.1044 188.328 58.1044ZM217.355 61.3684C215.371 61.3684 213.659 60.9844 212.219 60.2164C210.811 59.4484 209.659 58.4244 208.763 57.1444V60.9844H205.163V27.3844H208.763V40.8724C209.659 39.5604 210.811 38.5204 212.219 37.7524C213.659 36.9844 215.371 36.6004 217.355 36.6004C219.691 36.6004 221.723 37.1604 223.451 38.2804C225.211 39.3684 226.571 40.8564 227.531 42.7444C228.491 44.6004 228.971 46.6804 228.971 48.9844C228.971 51.2564 228.491 53.3364 227.531 55.2244C226.571 57.1124 225.211 58.6164 223.451 59.7364C221.723 60.8244 219.691 61.3684 217.355 61.3684ZM216.875 58.1044C218.667 58.1044 220.187 57.6884 221.435 56.8564C222.715 56.0244 223.691 54.9204 224.363 53.5444C225.035 52.1364 225.371 50.6164 225.371 48.9844C225.371 47.3204 225.035 45.8004 224.363 44.4244C223.691 43.0484 222.715 41.9444 221.435 41.1124C220.187 40.2804 218.667 39.8644 216.875 39.8644C215.115 39.8644 213.611 40.2804 212.363 41.1124C211.115 41.9444 210.171 43.0484 209.531 44.4244C208.891 45.8004 208.571 47.3204 208.571 48.9844C208.571 50.6164 208.891 52.1364 209.531 53.5444C210.171 54.9204 211.115 56.0244 212.363 56.8564C213.611 57.6884 215.115 58.1044 216.875 58.1044ZM233.71 60.9844V36.9844H237.31V42.8884C237.438 42.4724 237.678 41.9284 238.03 41.2564C238.414 40.5524 238.958 39.8484 239.662 39.1444C240.366 38.4404 241.246 37.8484 242.302 37.3684C243.39 36.8564 244.67 36.6004 246.142 36.6004H246.382V40.2004H245.95C244.158 40.2004 242.606 40.6964 241.294 41.6884C240.014 42.6484 239.022 43.9124 238.318 45.4804C237.646 47.0164 237.31 48.6644 237.31 50.4244V60.9844H233.71ZM250.113 32.9524V28.2484H254.001V32.9524H250.113ZM250.257 60.9844V36.9844H253.857V60.9844H250.257ZM260.1 60.9844V27.3844H263.7V60.9844H260.1ZM269.944 60.9844V27.3844H273.544V60.9844H269.944ZM279.644 32.9524V28.2484H283.532V32.9524H279.644ZM279.788 60.9844V36.9844H283.388V60.9844H279.788ZM299.76 61.3684C297.424 61.3684 295.376 60.8244 293.616 59.7364C291.888 58.6164 290.544 57.1124 289.584 55.2244C288.624 53.3364 288.144 51.2564 288.144 48.9844C288.144 46.6804 288.624 44.6004 289.584 42.7444C290.544 40.8564 291.888 39.3684 293.616 38.2804C295.376 37.1604 297.424 36.6004 299.76 36.6004C301.744 36.6004 303.44 36.9844 304.848 37.7524C306.288 38.5204 307.456 39.5604 308.352 40.8724V36.9844H311.952V60.9844H308.352V57.1444C307.456 58.4244 306.288 59.4484 304.848 60.2164C303.44 60.9844 301.744 61.3684 299.76 61.3684ZM300.24 58.1044C302.032 58.1044 303.536 57.6884 304.752 56.8564C306 56.0244 306.944 54.9204 307.584 53.5444C308.224 52.1364 308.544 50.6164 308.544 48.9844C308.544 47.3204 308.224 45.8004 307.584 44.4244C306.944 43.0484 306 41.9444 304.752 41.1124C303.536 40.2804 302.032 39.8644 300.24 39.8644C298.48 39.8644 296.96 40.2804 295.68 41.1124C294.4 41.9444 293.424 43.0484 292.752 44.4244C292.08 45.8004 291.744 47.3204 291.744 48.9844C291.744 50.6164 292.08 52.1364 292.752 53.5444C293.424 54.9204 294.4 56.0244 295.68 56.8564C296.96 57.6884 298.48 58.1044 300.24 58.1044Z" fill="white"/>
<path d="M30.1432 65.5922C29.2506 64.3345 25.922 64.6667 24.5467 64.8291C20.1287 65.3474 12.5801 67.5966 8.03231 68.7757L1.97686 70.2467C1.40822 70.3132 0.327303 70.3693 0.238016 69.5659C0.11352 68.4726 3.42212 66.8601 4.28148 66.3769C7.80623 64.3975 15.4878 61.587 17.7411 58.6171C14.453 56.9697 14.3296 57.3143 10.883 56.7451C10.2352 56.6376 9.0385 56.4795 9.04852 55.5771C9.05926 54.6098 10.7401 53.9802 11.4625 53.6497L18.9312 50.1408L37.9307 40.8072C42.1784 38.9693 47.4797 37.4826 51.9265 39.2436C54.1683 40.1298 55.7596 42.3044 56.7694 44.4229C57.3648 45.6656 57.6933 46.5855 57.9457 47.9535C59.6424 57.1752 49.2052 63.2006 42.5551 67.0842L38.1208 69.5761L31.2013 73.3608C29.496 74.2793 28.7883 75.0745 27.1082 73.8462C28.2282 72.1873 31.4858 67.4858 30.1432 65.5922ZM5.68322 67.8067L5.54568 67.3747L5.40013 67.6645L5.68322 67.8067ZM10.9716 66.4515C14.9551 65.3375 23.2761 63.124 27.1746 63.1252C32.0793 63.1271 33.0013 66.2251 30.9899 70.351L30.2622 71.8003C32.393 71.2769 36.5364 68.8277 38.6091 67.6435C43.7701 64.6927 51.797 60.2554 55.1291 55.2501C58.1383 50.7325 56.1507 42.7185 51.2336 40.6234C47.8253 39.1733 43.4936 40.3738 40.1343 41.5507C35.2518 43.2622 27.5629 47.3792 22.7146 49.8628L12.3705 55.1945L16.4232 56.3003C19.4569 57.2755 19.7806 59.2709 17.1966 61.2474C14.1003 63.6161 8.15104 65.5179 5.82877 67.5168C7.5521 67.5437 9.30263 66.9164 10.9716 66.4515ZM41.5597 57.7719C34.514 53.951 37.6573 42.9965 45.4678 42.9294C46.887 42.9197 48.2736 43.4054 49.4943 44.0874C54.4607 46.8678 54.4104 53.9637 49.922 57.354C47.9957 58.8113 45.8591 59.085 43.5413 58.7669C42.7337 58.4339 42.307 58.2742 41.5597 57.7719ZM48.1009 31.3957C50.7834 25.1569 57.193 28.7128 60.6491 31.7548C65.8856 36.3623 70.4992 44.7584 71.328 51.7694C71.8199 55.9218 71.2133 62.9961 65.3985 62.5336C62.1421 62.2704 59.7439 60.079 57.3143 58.1621C58.7961 55.7122 59.5335 54.9283 59.932 51.8545C60.5854 46.8472 57.7956 40.1908 53.3994 37.722C51.702 36.7681 49.2345 36.5926 47.3076 36.4417C47.2546 34.6765 47.3908 33.0499 48.1009 31.3957Z" fill="white"/>
</svg>
